<?xml version="1.0" encoding="UTF-8" standalone="no"?>
<!-- Created with Inkscape (http://www.inkscape.org/) -->

<svg
   width="500mm"
   height="160mm"
   viewBox="0 0 500 160"
   version="1.1"
   id="svg5"
   inkscape:version="1.1.2 (0a00cf5339, 2022-02-04)"
   sodipodi:docname="surviv_logo_full.svg"
   xmlns:inkscape="http://www.inkscape.org/namespaces/inkscape"
   xmlns:sodipodi="http://sodipodi.sourceforge.net/DTD/sodipodi-0.dtd"
   xmlns="http://www.w3.org/2000/svg"
   xmlns:svg="http://www.w3.org/2000/svg">
  <sodipodi:namedview
     id="namedview7"
     pagecolor="#505050"
     bordercolor="#ffffff"
     borderopacity="1"
     inkscape:pageshadow="0"
     inkscape:pageopacity="0"
     inkscape:pagecheckerboard="1"
     inkscape:document-units="mm"
     showgrid="false"
     height="204mm"
     inkscape:zoom="0.54866744"
     inkscape:cx="555.89229"
     inkscape:cy="-18.225977"
     inkscape:window-width="2560"
     inkscape:window-height="1372"
     inkscape:window-x="0"
     inkscape:window-y="0"
     inkscape:window-maximized="1"
     inkscape:current-layer="layer1" />
  <defs
     id="defs2">
    <filter
       style="color-interpolation-filters:sRGB"
       inkscape:label="Drop Shadow"
       id="filter323236"
       x="-0.029932767"
       y="-0.20316365"
       width="1.0785735"
       height="1.5333046">
      <feFlood
         flood-opacity="0.498039"
         flood-color="rgb(0,0,0)"
         result="flood"
         id="feFlood323226" />
      <feComposite
         in="flood"
         in2="SourceGraphic"
         operator="in"
         result="composite1"
         id="feComposite323228" />
      <feGaussianBlur
         in="composite1"
         stdDeviation="2"
         result="blur"
         id="feGaussianBlur323230" />
      <feOffset
         dx="3"
         dy="3"
         result="offset"
         id="feOffset323232" />
      <feComposite
         in="SourceGraphic"
         in2="offset"
         operator="over"
         result="composite2"
         id="feComposite323234" />
    </filter>
    <filter
       style="color-interpolation-filters:sRGB"
       inkscape:label="Drop Shadow"
       id="filter323266"
       x="-0.015668479"
       y="-0.091496673"
       width="1.0375849"
       height="1.2194784">
      <feFlood
         flood-opacity="0.498039"
         flood-color="rgb(0,0,0)"
         result="flood"
         id="feFlood323256" />
      <feComposite
         in="flood"
         in2="SourceGraphic"
         operator="in"
         result="composite1"
         id="feComposite323258" />
      <feGaussianBlur
         in="composite1"
         stdDeviation="2"
         result="blur"
         id="feGaussianBlur323260" />
      <feOffset
         dx="3"
         dy="3"
         result="offset"
         id="feOffset323262" />
      <feComposite
         in="SourceGraphic"
         in2="offset"
         operator="over"
         result="composite2"
         id="feComposite323264" />
    </filter>
    <filter
       style="color-interpolation-filters:sRGB;"
       inkscape:label="Drop Shadow"
       id="filter323408"
       x="-0.017633979"
       y="-0.090876429"
       width="1.0462892"
       height="1.2385506">
      <feFlood
         flood-opacity="0.498039"
         flood-color="rgb(0,0,0)"
         result="flood"
         id="feFlood323398" />
      <feComposite
         in="flood"
         in2="SourceGraphic"
         operator="in"
         result="composite1"
         id="feComposite323400" />
      <feGaussianBlur
         in="composite1"
         stdDeviation="2"
         result="blur"
         id="feGaussianBlur323402" />
      <feOffset
         dx="3"
         dy="3"
         result="offset"
         id="feOffset323404" />
      <feComposite
         in="SourceGraphic"
         in2="offset"
         operator="over"
         result="composite2"
         id="feComposite323406" />
    </filter>
    <filter
       style="color-interpolation-filters:sRGB;"
       inkscape:label="Drop Shadow"
       id="filter323438"
       x="-0.012105812"
       y="-0.13182577"
       width="1.0317778"
       height="1.3460426">
      <feFlood
         flood-opacity="0.498039"
         flood-color="rgb(0,0,0)"
         result="flood"
         id="feFlood323428" />
      <feComposite
         in="flood"
         in2="SourceGraphic"
         operator="in"
         result="composite1"
         id="feComposite323430" />
      <feGaussianBlur
         in="composite1"
         stdDeviation="2"
         result="blur"
         id="feGaussianBlur323432" />
      <feOffset
         dx="3"
         dy="3"
         result="offset"
         id="feOffset323434" />
      <feComposite
         in="SourceGraphic"
         in2="offset"
         operator="over"
         result="composite2"
         id="feComposite323436" />
    </filter>
  </defs>
  <g
     inkscape:label="Layer 1"
     inkscape:groupmode="layer"
     id="layer1">
    <g
       aria-label="SURVIV"
       id="text3400"
       style="font-size:76.7292px;line-height:1.25;font-family:DINNextRoundedLTW01-Bold;-inkscape-font-specification:DINNextRoundedLTW01-Bold;letter-spacing:0px;word-spacing:0px;fill:#ffffff;stroke-width:0.264583;filter:url(#filter323408)">
      <path
         d="m 41.979907,76.672623 q -6.560346,0 -10.243348,-2.647158 -3.644637,-2.647157 -4.565388,-8.17166 -0.153458,-1.688042 0.690563,-2.532064 0.844021,-0.844021 2.455335,-0.844021 1.611313,0 2.34024,0.767292 0.767292,0.767292 1.035845,2.378606 0.575469,2.647157 2.455334,3.644637 1.91823,0.959115 5.831419,0.959115 h 11.049006 q 4.949033,0 6.713805,-1.764772 1.803136,-1.803136 1.803136,-6.675441 0,-4.949033 -1.841501,-6.752169 -1.841501,-1.841501 -6.67544,-1.841501 h -9.514422 q -7.250909,0 -10.780452,-3.529544 -3.491179,-3.567907 -3.491179,-10.818817 0,-7.212545 3.452814,-10.703724 3.491179,-3.491178 10.742088,-3.491178 h 9.130775 q 6.099972,0 9.552786,2.493699 3.491179,2.493699 4.411929,7.634555 0.230188,1.649678 -0.613833,2.532064 -0.844022,0.844021 -2.532064,0.844021 -1.534584,0 -2.301876,-0.805656 -0.767292,-0.805657 -0.99748,-2.340241 -0.613833,-2.263512 -2.340241,-3.069168 -1.726407,-0.844021 -5.179221,-0.844021 h -9.130775 q -4.603752,0 -6.176701,1.649677 -1.572948,1.611314 -1.572948,6.099972 0,4.527023 1.611313,6.215065 1.611313,1.688043 6.215065,1.688043 h 9.514422 q 7.557826,0 11.240828,3.683002 3.721366,3.683001 3.721366,11.355921 0,7.634556 -3.683002,11.279193 -3.683001,3.606273 -11.279192,3.606273 z"
         style="font-weight:bold;font-family:Jura;-inkscape-font-specification:'Jura Bold'"
         id="path852" />
      <path
         d="m 98.91291,76.672623 q -8.785494,0 -13.0056,-4.181742 -4.181742,-4.220106 -4.181742,-13.0056 V 27.87285 q 0,-1.611313 0.805657,-2.41697 0.805657,-0.805656 2.41697,-0.805656 1.611313,0 2.41697,0.805656 0.805656,0.805657 0.805656,2.41697 v 31.612431 q 0,4.105013 0.959115,6.445253 0.99748,2.340241 3.337721,3.337721 2.34024,0.959115 6.445253,0.959115 h 9.2075 q 4.10502,0 6.44526,-0.959115 2.34024,-0.99748 3.29935,-3.337721 0.99748,-2.34024 0.99748,-6.445253 V 27.87285 q 0,-1.611313 0.80566,-2.41697 0.80566,-0.805656 2.41697,-0.805656 1.61131,0 2.41697,0.805656 0.80566,0.805657 0.80566,2.41697 v 31.612431 q 0,8.785494 -4.18175,13.0056 -4.18174,4.181742 -13.0056,4.181742 z"
         style="font-weight:bold;font-family:Jura;-inkscape-font-specification:'Jura Bold'"
         id="path854" />
      <path
         d="m 174.33763,76.826081 q -1.26604,0.805657 -2.41697,0.49874 -1.15094,-0.306917 -1.9566,-1.572949 L 158.07103,55.955738 h -10.74208 v 17.494258 q 0,3.222627 -3.22263,3.222627 -3.22263,0 -3.22263,-3.222627 V 27.87285 q 0,-3.222626 3.22263,-3.222626 h 17.95463 q 7.02073,0 10.74209,3.75973 3.75973,3.721367 3.75973,10.742089 v 2.301876 q 0,6.099971 -2.83898,9.744609 -2.83898,3.606272 -8.21002,4.488658 l 10.05152,16.765331 q 1.45786,2.685522 -1.22766,4.373564 z M 147.32895,49.510485 h 14.732 q 4.37357,0 6.21507,-1.841501 1.8415,-1.841501 1.8415,-6.215065 v -2.301876 q 0,-4.3352 -1.8415,-6.176701 -1.8415,-1.879865 -6.21507,-1.879865 h -14.732 z"
         style="font-weight:bold;font-family:Jura;-inkscape-font-specification:'Jura Bold'"
         id="path856" />
      <path
         d="m 204.41531,76.672623 q -1.99495,0 -3.14589,-2.532064 L 182.3173,29.253976 q -0.57546,-1.342761 -0.30691,-2.378606 0.26855,-1.074208 1.76477,-1.764771 3.1459,-1.572949 4.45029,1.611313 l 17.91627,42.431249 h -2.22515 l 17.4559,-42.431249 q 1.26603,-3.145897 4.45029,-1.611313 1.34276,0.690563 1.64968,1.764771 0.34528,1.035845 -0.19182,2.378606 l -19.10557,44.886583 q -1.18931,2.532064 -3.45282,2.532064 z"
         style="font-weight:bold;font-family:Jura;-inkscape-font-specification:'Jura Bold'"
         id="path858" />
      <path
         d="m 240.63147,76.672623 q -1.64967,0 -2.45533,-0.767292 -0.76729,-0.805657 -0.76729,-2.455335 V 27.949579 q 0,-1.688042 0.76729,-2.455334 0.80566,-0.767292 2.45533,-0.767292 1.68805,0 2.45534,0.767292 0.76729,0.767292 0.76729,2.455334 v 45.500417 q 0,1.649678 -0.76729,2.455335 -0.76729,0.767292 -2.45534,0.767292 z"
         style="font-weight:bold;font-family:Jura;-inkscape-font-specification:'Jura Bold'"
         id="path860" />
      <path
         d="m 276.15707,76.672623 q -1.99495,0 -3.14589,-2.532064 L 254.05906,29.253976 q -0.57546,-1.342761 -0.30691,-2.378606 0.26855,-1.074208 1.76477,-1.764771 3.1459,-1.572949 4.45029,1.611313 l 17.91627,42.431249 h -2.22515 l 17.4559,-42.431249 q 1.26603,-3.145897 4.45029,-1.611313 1.34276,0.690563 1.64968,1.764771 0.34528,1.035845 -0.19182,2.378606 l -19.10557,44.886583 q -1.18931,2.532064 -3.45282,2.532064 z"
         style="font-weight:bold;font-family:Jura;-inkscape-font-specification:'Jura Bold'"
         id="path862" />
    </g>
    <g
       aria-label="RELOADED"
       id="text76446"
       style="font-size:31.75px;font-family:DINNextRoundedLTW01-Bold;-inkscape-font-specification:DINNextRoundedLTW01-Bold;letter-spacing:0px;word-spacing:0px;fill:#ffe400;stroke-width:1.8;filter:url(#filter323236)">
      <g
         id="path883">
        <path
           style="color:#000000;-inkscape-font-specification:jura;-inkscape-stroke:none"
           d="m 330.11274,61.67458 q -0.52387,0.333375 -1.00012,0.206375 -0.47625,-0.127 -0.80963,-0.650875 l -4.92125,-8.1915 h -4.445 v 7.239 q 0,1.3335 -1.3335,1.3335 -1.3335,0 -1.3335,-1.3335 v -18.8595 q 0,-1.3335 1.3335,-1.3335 h 7.4295 q 2.90513,0 4.445,1.55575 1.55575,1.539875 1.55575,4.445 v 0.9525 q 0,2.524125 -1.17475,4.03225 -1.17475,1.49225 -3.39725,1.857375 l 4.15925,6.937375 q 0.60325,1.11125 -0.508,1.80975 z m -11.176,-11.303 h 6.096 q 1.80975,0 2.57175,-0.762 0.762,-0.762 0.762,-2.57175 v -0.9525 q 0,-1.793875 -0.762,-2.555875 -0.762,-0.777875 -2.57175,-0.777875 h -6.096 z"
           id="path982" />
        <path
           style="color:#000000;-inkscape-font-specification:jura;-inkscape-stroke:none"
           d="m 317.60352,39.185547 c -0.5945,0 -1.20234,0.161321 -1.63672,0.595703 -0.43438,0.434382 -0.59766,1.042219 -0.59766,1.636719 v 18.859375 c 0,0.594499 0.16328,1.202337 0.59766,1.636718 0.43438,0.434382 1.04222,0.597657 1.63672,0.597657 0.5945,0 1.20233,-0.163275 1.63671,-0.597657 0.43439,-0.434381 0.59571,-1.042219 0.59571,-1.636718 v -6.337891 h 3.03711 l 4.66406,7.763672 0.006,0.0098 c 0.30878,0.485225 0.77322,0.88653 1.33789,1.037109 0.58632,0.156352 1.21771,-4.4e-5 1.71484,-0.316406 0.49043,-0.309406 0.90625,-0.747794 1.06641,-1.31836 0.16068,-0.572413 0.0252,-1.172705 -0.25,-1.679687 l -0.01,-0.01758 -3.59961,-6.001953 c 1.09585,-0.379057 2.07962,-0.920131 2.76368,-1.789063 v -0.002 l 0.002,-0.002 c 0.93275,-1.197449 1.36523,-2.763567 1.36523,-4.585938 v -0.951172 c 0,-2.093492 -0.58286,-3.852769 -1.8164,-5.078125 l -0.002,-0.002 c -1.22556,-1.236971 -2.9857,-1.820312 -5.08203,-1.820312 z m 0,1.798828 h 7.42968 c 1.7761,0 2.97718,0.453015 3.80469,1.289062 l 0.004,0.0039 0.002,0.002 c 0.83605,0.827518 1.28906,2.030548 1.28906,3.80664 v 0.951172 c 0,1.542303 -0.35143,2.665238 -0.98437,3.478516 -3.4e-4,4.34e-4 3.4e-4,0.0015 0,0.002 -0.63437,0.803573 -1.52125,1.306141 -2.83203,1.521484 l -1.3086,0.214844 4.82227,8.042969 c 0.12471,0.230856 0.10822,0.301361 0.0996,0.332031 -0.009,0.03084 -0.0485,0.127113 -0.29688,0.283203 l -0.002,0.002 -0.002,0.002 c -0.20136,0.128137 -0.23648,0.108684 -0.28516,0.0957 -0.0703,-0.01875 -0.14553,-0.05235 -0.28125,-0.265625 l -5.17188,-8.607422 h -5.85351 v 8.138672 c 0,0.294499 -0.0602,0.353163 -0.0703,0.363281 -0.0101,0.01012 -0.0688,0.07031 -0.36328,0.07031 -0.2945,0 -0.35317,-0.06019 -0.36329,-0.07031 -0.0101,-0.01012 -0.0703,-0.06878 -0.0703,-0.363281 V 41.417969 c 0,-0.2945 0.0602,-0.353164 0.0703,-0.363282 0.0101,-0.01012 0.0688,-0.07031 0.36329,-0.07031 z m 0.43359,0.867187 v 9.419922 h 0.90039 6.0957 c 1.33282,0 2.44713,-0.265484 3.20703,-1.02539 0.75991,-0.759906 1.02539,-1.87617 1.02539,-3.208985 v -0.951172 c 0,-1.321543 -0.2681,-2.431827 -1.02343,-3.189453 -0.75718,-0.769166 -1.87645,-1.044922 -3.20899,-1.044922 z m 1.79883,1.800782 h 5.19726 c 1.07755,0 1.66898,0.243665 1.92774,0.507812 l 0.004,0.002 0.004,0.0039 c 0.2583,0.258302 0.49805,0.85144 0.49805,1.919921 v 0.951172 c 0,1.080184 -0.24196,1.679454 -0.49805,1.935547 -0.25609,0.256093 -0.85536,0.498047 -1.93555,0.498047 h -5.19726 z"
           id="path984" />
      </g>
      <g
         id="path885">
        <path
           style="color:#000000;-inkscape-font-specification:jura;-inkscape-stroke:none"
           d="m 337.44693,61.61108 q -1.3335,0 -1.3335,-1.3335 v -18.8595 q 0,-1.3335 1.3335,-1.3335 h 11.39825 q 1.3335,0 1.3335,1.3335 0,1.3335 -1.3335,1.3335 h -10.06475 v 6.6675 h 6.31825 q 1.3335,0 1.3335,1.3335 0,1.3335 -1.3335,1.3335 h -6.31825 v 6.858 h 10.06475 q 1.3335,0 1.3335,1.3335 0,1.3335 -1.3335,1.3335 z"
           id="path988" />
        <path
           style="color:#000000;-inkscape-font-specification:jura;-inkscape-stroke:none"
           d="m 337.44727,39.185547 c -0.5945,0 -1.20234,0.161321 -1.63672,0.595703 -0.43438,0.434382 -0.59766,1.042219 -0.59766,1.636719 v 18.859375 c 0,0.594499 0.16328,1.202337 0.59766,1.636718 0.43438,0.434382 1.04222,0.597657 1.63672,0.597657 h 11.39843 c 0.5945,0 1.20234,-0.163275 1.63672,-0.597657 0.43438,-0.434381 0.59571,-1.042219 0.5957,-1.636718 10e-6,-0.5945 -0.16132,-1.202337 -0.5957,-1.636719 -0.43438,-0.434382 -1.04222,-0.595703 -1.63672,-0.595703 h -9.16601 v -5.058594 h 5.41992 c 0.5945,0 1.20038,-0.163275 1.63476,-0.597656 0.43439,-0.434382 0.59766,-1.042219 0.59766,-1.636719 0,-0.594499 -0.16327,-1.202337 -0.59766,-1.636719 -0.43438,-0.434381 -1.04026,-0.595703 -1.63476,-0.595703 h -5.41992 v -4.867187 h 9.16601 c 0.5945,0 1.20234,-0.163275 1.63672,-0.597657 0.43438,-0.434381 0.5957,-1.042219 0.5957,-1.636718 10e-6,-0.5945 -0.16132,-1.202337 -0.5957,-1.636719 -0.43438,-0.434382 -1.04222,-0.595703 -1.63672,-0.595703 z m 0,1.798828 h 11.39843 c 0.2945,0 0.35317,0.0602 0.36328,0.07031 0.0101,0.01012 0.0703,0.06878 0.0703,0.363282 0,0.294499 -0.0602,0.353163 -0.0703,0.363281 -0.0101,0.01012 -0.0688,0.07031 -0.36328,0.07031 h -10.96484 v 8.466797 h 7.21875 c 0.2945,0 0.35316,0.0602 0.36328,0.07031 0.0101,0.01012 0.0684,0.06878 0.0684,0.363281 0,0.2945 -0.0582,0.355117 -0.0684,0.365234 -0.0101,0.01012 -0.0688,0.06836 -0.36328,0.06836 h -7.21875 v 8.658203 h 10.96484 c 0.2945,0 0.35317,0.0602 0.36328,0.07031 0.0101,0.01012 0.0703,0.06878 0.0703,0.363282 0,0.294499 -0.0602,0.353163 -0.0703,0.363281 -0.0101,0.01012 -0.0688,0.07031 -0.36328,0.07031 h -11.39843 c -0.2945,0 -0.35317,-0.06019 -0.36329,-0.07031 -0.0101,-0.01012 -0.0703,-0.06878 -0.0703,-0.363281 V 41.417969 c 0,-0.2945 0.0602,-0.353164 0.0703,-0.363282 0.0101,-0.01012 0.0688,-0.07031 0.36329,-0.07031 z"
           id="path990" />
      </g>
      <g
         id="path887">
        <path
           style="color:#000000;-inkscape-font-specification:jura;-inkscape-stroke:none"
           d="m 356.59214,61.61108 q -1.3335,0 -1.3335,-1.3335 v -18.8595 q 0,-1.3335 1.3335,-1.3335 1.3335,0 1.3335,1.3335 v 17.526 h 8.79475 q 1.3335,0 1.3335,1.3335 0,1.3335 -1.3335,1.3335 z"
           id="path994" />
        <path
           style="color:#000000;-inkscape-font-specification:jura;-inkscape-stroke:none"
           d="m 356.5918,39.185547 c -0.5945,0 -1.20234,0.161321 -1.63672,0.595703 -0.43438,0.434382 -0.59571,1.042219 -0.59571,1.636719 v 18.859375 c 0,0.594499 0.16133,1.202337 0.59571,1.636718 0.43438,0.434382 1.04222,0.597657 1.63672,0.597657 h 10.1289 c 0.5945,0 1.20234,-0.163275 1.63672,-0.597657 0.43438,-0.434381 0.59571,-1.042219 0.5957,-1.636718 0,-0.5945 -0.16132,-1.202337 -0.5957,-1.636719 -0.43438,-0.434382 -1.04222,-0.595703 -1.63672,-0.595703 h -7.89453 V 41.417969 c 0,-0.5945 -0.16327,-1.202337 -0.59765,-1.636719 -0.43439,-0.434382 -1.04222,-0.595703 -1.63672,-0.595703 z m 0,1.798828 c 0.2945,0 0.35316,0.0602 0.36328,0.07031 0.0101,0.01012 0.0703,0.06878 0.0703,0.363282 V 59.84375 h 9.69531 c 0.2945,0 0.35317,0.0602 0.36328,0.07031 0.0101,0.01012 0.0703,0.06878 0.0703,0.363282 0,0.294499 -0.0602,0.353163 -0.0703,0.363281 -0.0101,0.01012 -0.0688,0.07031 -0.36328,0.07031 h -10.1289 c -0.2945,0 -0.35317,-0.06019 -0.36328,-0.07031 -0.0101,-0.01012 -0.0703,-0.06878 -0.0703,-0.363281 V 41.417969 c 0,-0.2945 0.0602,-0.353164 0.0703,-0.363282 0.0101,-0.01012 0.0688,-0.07031 0.36328,-0.07031 z"
           id="path996" />
      </g>
      <g
         id="path889">
        <path
           style="color:#000000;-inkscape-font-specification:jura;-inkscape-stroke:none"
           d="m 378.15033,61.61108 q -3.63538,0 -5.38163,-1.730375 -1.73037,-1.74625 -1.73037,-5.381625 v -7.33425 q 0,-3.667125 1.74625,-5.381625 1.74625,-1.730375 5.36575,-1.698625 h 3.81 q 3.65125,0 5.38162,1.730375 1.73038,1.730375 1.73038,5.381625 v 7.3025 q 0,3.635375 -1.73038,5.381625 -1.73037,1.730375 -5.38162,1.730375 z m 0,-2.667 h 3.81 q 1.69862,0 2.667,-0.396875 0.96837,-0.41275 1.36525,-1.381125 0.41275,-0.968375 0.41275,-2.667 v -7.3025 q 0,-1.68275 -0.41275,-2.651125 -0.39688,-0.968375 -1.36525,-1.381125 -0.96838,-0.41275 -2.667,-0.41275 h -3.81 q -1.68275,-0.01587 -2.65113,0.381 -0.96837,0.396875 -1.38112,1.36525 -0.41275,0.968375 -0.41275,2.667 v 7.33425 q 0,1.698625 0.39687,2.667 0.41275,0.968375 1.38113,1.381125 0.96837,0.396875 2.667,0.396875 z"
           id="path1000" />
        <path
           style="color:#000000;-inkscape-font-specification:jura;-inkscape-stroke:none"
           d="m 378.15039,39.185547 c -2.55257,-0.021 -4.61265,0.58552 -5.99805,1.957031 -6.2e-4,6.18e-4 -0.001,0.0013 -0.002,0.002 -1.39042,1.367763 -2.01172,3.434255 -2.01172,6.019531 V 54.5 c 0,2.566375 0.61687,4.627699 1.99024,6.013672 l 0.004,0.0039 0.002,0.002 c 1.38597,1.373373 3.44924,1.992188 6.01562,1.992188 h 3.81055 c 2.57634,0 4.64019,-0.616749 6.01758,-1.994141 l 0.002,-0.002 v -0.002 C 389.35384,59.1277 389.97266,57.066376 389.97266,54.5 v -7.302734 c 0,-2.576339 -0.61675,-4.642141 -1.99414,-6.019532 -1.37739,-1.377392 -3.44124,-1.992187 -6.01758,-1.992187 h -3.80274 z m -0.008,1.798828 h 0.004 3.81446 c 2.29199,0 3.81437,0.537024 4.74414,1.466797 0.92977,0.929774 1.46679,2.454104 1.46679,4.746094 V 54.5 c 0,2.278489 -0.53474,3.801558 -1.46679,4.744141 -0.92977,0.929772 -2.45215,1.466796 -4.74414,1.466796 h -3.81055 c -2.27849,10e-7 -3.80156,-0.534747 -4.74414,-1.466796 C 372.4742,58.301559 371.9375,56.778491 371.9375,54.5 v -7.335938 c 0,-2.30189 0.54325,-3.820016 1.47852,-4.738281 v -0.002 l 0.002,-0.002 c 0.94137,-0.932815 2.45628,-1.457398 4.72461,-1.4375 z m 0.0156,0.867187 c -1.1942,-0.01126 -2.18126,0.111722 -3,0.447266 -0.84173,0.344975 -1.50986,1.007371 -1.86718,1.845703 -0.3496,0.820195 -0.48633,1.814219 -0.48633,3.019531 V 54.5 c 0,1.202508 0.13024,2.191371 0.46484,3.007812 l 0.002,0.0059 0.002,0.0059 c 0.35662,0.836703 1.02071,1.498843 1.85742,1.855469 l 0.006,0.002 0.006,0.0039 c 0.81644,0.334609 1.8053,0.462891 3.00781,0.462891 h 3.81055 c 1.2025,0 2.19137,-0.128284 3.00781,-0.462891 l 0.006,-0.0039 0.006,-0.002 c 0.83527,-0.35602 1.49382,-1.021968 1.83984,-1.859375 0.34861,-0.819599 0.48438,-1.811832 0.48438,-3.015625 v -7.302734 c 0,-1.193902 -0.13646,-2.182041 -0.48438,-3 -0.34602,-0.837413 -1.00456,-1.505306 -1.83984,-1.861329 -0.8202,-0.349589 -1.81422,-0.484375 -3.01953,-0.484375 z m -0.0156,1.800782 h 0.004 3.81446 c 1.05951,0 1.84347,0.139101 2.31445,0.339843 0.45283,0.193011 0.70057,0.4451 0.88477,0.894532 l 0.002,0.0059 0.002,0.0059 c 0.20144,0.472603 0.3418,1.250581 0.3418,2.298829 V 54.5 c 0,1.059518 -0.14106,1.841529 -0.3418,2.3125 l -0.002,0.0059 -0.002,0.0059 c -0.18359,0.447949 -0.43282,0.697862 -0.88282,0.890625 -0.47522,0.193527 -1.25758,0.330078 -2.3164,0.330078 h -3.81055 c -1.05783,0 -1.84105,-0.134894 -2.31641,-0.328125 -0.44971,-0.192312 -0.70557,-0.450407 -0.89843,-0.898438 -0.19379,-0.475098 -0.33008,-1.258661 -0.33008,-2.318359 v -7.335938 c 0,-1.059518 0.1391,-1.841528 0.33984,-2.3125 0.19301,-0.452833 0.44511,-0.702526 0.89453,-0.886718 0.47243,-0.193616 1.25328,-0.322398 2.30274,-0.3125 z"
           id="path1002" />
      </g>
      <g
         id="path891">
        <path
           style="color:#000000;-inkscape-font-specification:jura;-inkscape-stroke:none"
           d="m 393.58078,61.48408 q -1.27,-0.492125 -0.762,-1.74625 l 7.5565,-18.6055 q 0.47625,-1.04775 1.49225,-1.04775 h 0.0635 q 1.03188,0.04762 1.397,1.04775 l 7.6835,18.6055 q 0.508,1.254125 -0.73025,1.74625 -1.25412,0.492125 -1.74625,-0.73025 l -1.7145,-4.15925 h -9.89012 l -1.63513,4.15925 q -0.49212,1.23825 -1.7145,0.73025 z m 4.39738,-7.5565 h 7.747 l -3.95288,-9.62025 z"
           id="path1006" />
        <path
           style="color:#000000;-inkscape-font-specification:jura;-inkscape-stroke:none"
           d="m 401.86719,39.185547 c -0.98671,0 -1.89328,0.656234 -2.31055,1.574219 l -0.008,0.01758 -7.56446,18.623047 c -0.22601,0.557968 -0.3035,1.191516 -0.0547,1.761718 0.24666,0.565272 0.75789,0.933673 1.31445,1.152344 0.54511,0.224948 1.16498,0.308386 1.72852,0.06836 0.56608,-0.241109 0.93913,-0.74566 1.1582,-1.296875 l 0.002,-0.002 1.41016,-3.589843 h 8.67578 l 1.48047,3.595703 c 3.5e-4,8.71e-4 0.002,0.0011 0.002,0.002 0.22148,0.54869 0.6055,1.049123 1.16992,1.285156 0.56533,0.236408 1.18367,0.162946 1.73828,-0.05469 l 0.002,-0.002 h 0.002 c 0.5543,-0.220298 1.06258,-0.602268 1.30078,-1.171875 0.2382,-0.569606 0.15643,-1.193102 -0.0684,-1.748046 l -0.002,-0.0039 -7.66992,-18.572265 c -0.3355,-0.91899 -1.2283,-1.593775 -2.20117,-1.638672 h -0.0215 z m 0,1.798828 h 0.0215 c 0.40296,0.0186 0.44242,0.04252 0.59375,0.457031 l 0.006,0.01758 7.69141,18.623047 c 0.10751,0.270581 0.0774,0.360769 0.0723,0.373047 -0.005,0.01233 -0.0367,0.08575 -0.29883,0.191406 -0.001,5.38e-4 -5.9e-4,-5.3e-4 -0.002,0 -0.27824,0.108533 -0.37004,0.07729 -0.38672,0.07031 -0.0168,-0.007 -0.0885,-0.03363 -0.19531,-0.298828 v -0.0039 l -1.94531,-4.71875 h -11.10742 l -1.85938,4.728516 c -0.10771,0.268607 -0.18408,0.300445 -0.18945,0.302734 -0.005,0.0023 -0.0738,0.03718 -0.3418,-0.07422 l -0.01,-0.0039 -0.01,-0.0039 c -0.2844,-0.110204 -0.32099,-0.191245 -0.32617,-0.203125 -0.005,-0.01188 -0.0404,-0.08712 0.0723,-0.365234 l 7.54297,-18.572266 c 0.21774,-0.479014 0.30392,-0.519531 0.67188,-0.519531 z m -0.11133,0.914062 -5.09961,12.929688 h 1.32227 9.08984 z m 0.0332,4.81836 2.59375,6.310547 h -5.08398 z"
           id="path1008" />
      </g>
      <g
         id="path893">
        <path
           style="color:#000000;-inkscape-font-specification:jura;-inkscape-stroke:none"
           d="m 417.07573,61.61108 q -1.3335,0 -1.3335,-1.3335 v -18.8595 q 0,-1.3335 1.3335,-1.3335 h 7.65175 q 4.14338,0 6.096,1.9685 1.9685,1.952625 1.9685,6.096 v 5.3975 q 0,4.143375 -1.95262,6.111875 -1.93675,1.952625 -6.11188,1.952625 z m 1.3335,-2.667 h 6.31825 q 2.032,0 3.20675,-0.492125 1.19063,-0.508 1.68275,-1.68275 0.508,-1.190625 0.508,-3.222625 v -5.3975 q 0,-2.016125 -0.508,-3.190875 -0.49212,-1.190625 -1.68275,-1.698625 -1.17475,-0.508 -3.20675,-0.508 h -6.31825 z"
           id="path1012" />
        <path
           style="color:#000000;-inkscape-font-specification:jura;-inkscape-stroke:none"
           d="m 417.07617,39.185547 c -0.5945,0 -1.20234,0.161321 -1.63672,0.595703 -0.43438,0.434382 -0.59765,1.042219 -0.59765,1.636719 v 18.859375 c 0,0.594499 0.16327,1.202337 0.59765,1.636718 0.43438,0.434382 1.04222,0.597657 1.63672,0.597657 h 7.65039 c 2.92372,0 5.23308,-0.687427 6.75196,-2.21875 1.52408,-1.536479 2.21289,-3.842468 2.21289,-6.746094 v -5.398438 c 0,-2.902867 -0.69624,-5.204554 -2.23243,-6.730468 -1.52591,-1.536188 -3.82955,-2.232422 -6.73242,-2.232422 z m 0,1.798828 h 7.65039 c 2.61972,0 4.37944,0.616763 5.45703,1.703125 l 0.004,0.002 0.002,0.002 c 1.08637,1.077603 1.70313,2.837313 1.70313,5.457031 v 5.398438 c 0,2.620868 -0.612,4.39033 -1.69141,5.478516 -1.06346,1.072174 -2.83149,1.685546 -5.47461,1.685546 h -7.65039 c -0.2945,0 -0.35316,-0.06019 -0.36328,-0.07031 -0.0101,-0.01012 -0.0703,-0.06878 -0.0703,-0.363281 V 41.417969 c 0,-0.2945 0.0602,-0.353164 0.0703,-0.363282 0.0101,-0.01012 0.0688,-0.07031 0.36328,-0.07031 z m 0.4336,0.867187 V 59.84375 h 0.90039 6.3164 c 1.42732,0 2.60096,-0.162963 3.55469,-0.5625 h 0.004 l 0.002,-0.002 c 0.98205,-0.419007 1.74778,-1.182286 2.1582,-2.160156 0.41024,-0.963173 0.58008,-2.144122 0.58008,-3.572266 v -5.398438 c 0,-1.417263 -0.16849,-2.586571 -0.58008,-3.541015 -0.40897,-0.983492 -1.17297,-1.753904 -2.15429,-2.173828 -5.1e-4,-2.21e-4 -0.001,2.2e-4 -0.002,0 -0.95641,-0.413218 -2.1336,-0.582031 -3.5625,-0.582032 z m 1.79882,1.800782 h 5.41797 c 1.27967,0 2.23996,0.169962 2.84961,0.433593 h 0.002 l 0.002,0.002 c 0.60148,0.256631 0.95761,0.616131 1.20508,1.214843 l 0.002,0.0059 0.004,0.0059 c 0.26421,0.611004 0.43359,1.565493 0.43359,2.833984 v 5.398438 c 0,1.279665 -0.16941,2.245375 -0.43555,2.869141 l -0.002,0.002 v 0.0039 c -0.245,0.584853 -0.60104,0.941499 -1.20117,1.199219 -4.1e-4,1.71e-4 -0.002,-1.72e-4 -0.002,0 -0.61265,0.256335 -1.57627,0.423828 -2.85742,0.423828 h -5.41797 z"
           id="path1014" />
      </g>
      <g
         id="path895">
        <path
           style="color:#000000;-inkscape-font-specification:jura;-inkscape-stroke:none"
           d="m 439.96744,61.61108 q -1.3335,0 -1.3335,-1.3335 v -18.8595 q 0,-1.3335 1.3335,-1.3335 h 11.39825 q 1.3335,0 1.3335,1.3335 0,1.3335 -1.3335,1.3335 h -10.06475 v 6.6675 h 6.31825 q 1.3335,0 1.3335,1.3335 0,1.3335 -1.3335,1.3335 h -6.31825 v 6.858 h 10.06475 q 1.3335,0 1.3335,1.3335 0,1.3335 -1.3335,1.3335 z"
           id="path1018" />
        <path
           style="color:#000000;-inkscape-font-specification:jura;-inkscape-stroke:none"
           d="m 439.9668,39.185547 c -0.5945,0 -1.20234,0.161321 -1.63672,0.595703 -0.43438,0.434382 -0.5957,1.042219 -0.59571,1.636719 v 18.859375 c 0,0.594499 0.16133,1.202337 0.59571,1.636718 0.43438,0.434382 1.04222,0.597657 1.63672,0.597657 h 11.39843 c 0.5945,0 1.20234,-0.163275 1.63672,-0.597657 0.43438,-0.434381 0.59766,-1.042219 0.59766,-1.636718 0,-0.5945 -0.16328,-1.202337 -0.59766,-1.636719 -0.43438,-0.434382 -1.04222,-0.595703 -1.63672,-0.595703 h -9.16406 v -5.058594 h 5.41797 c 0.5945,0 1.20234,-0.163275 1.63672,-0.597656 0.43438,-0.434382 0.59766,-1.042219 0.59766,-1.636719 0,-0.594499 -0.16328,-1.202337 -0.59766,-1.636719 -0.43438,-0.434381 -1.04222,-0.595703 -1.63672,-0.595703 h -5.41797 v -4.867187 h 9.16406 c 0.5945,0 1.20234,-0.163275 1.63672,-0.597657 0.43438,-0.434381 0.59766,-1.042219 0.59766,-1.636718 0,-0.5945 -0.16328,-1.202337 -0.59766,-1.636719 -0.43438,-0.434382 -1.04222,-0.595703 -1.63672,-0.595703 z m 0,1.798828 h 11.39843 c 0.2945,0 0.35317,0.0602 0.36329,0.07031 0.0101,0.01012 0.0703,0.06878 0.0703,0.363282 0,0.294499 -0.0602,0.353163 -0.0703,0.363281 -0.0101,0.01012 -0.0688,0.07031 -0.36329,0.07031 h -10.96484 v 8.466797 h 7.21875 c 0.2945,0 0.35316,0.0602 0.36328,0.07031 0.0101,0.01012 0.0703,0.06878 0.0703,0.363281 0,0.2945 -0.0602,0.355117 -0.0703,0.365234 -0.0101,0.01012 -0.0688,0.06836 -0.36328,0.06836 h -7.21875 v 8.658203 h 10.96484 c 0.2945,0 0.35317,0.0602 0.36329,0.07031 0.0101,0.01012 0.0703,0.06878 0.0703,0.363282 0,0.294499 -0.0602,0.353163 -0.0703,0.363281 -0.0101,0.01012 -0.0688,0.07031 -0.36329,0.07031 H 439.9668 c -0.2945,0 -0.35317,-0.06019 -0.36328,-0.07031 -0.0101,-0.01012 -0.0703,-0.06878 -0.0703,-0.363281 V 41.417969 c 0,-0.2945 0.0602,-0.353164 0.0703,-0.363282 0.0101,-0.01012 0.0688,-0.07031 0.36328,-0.07031 z"
           id="path1020" />
      </g>
      <g
         id="path897">
        <path
           style="color:#000000;-inkscape-font-specification:jura;-inkscape-stroke:none"
           d="m 459.11266,61.61108 q -1.3335,0 -1.3335,-1.3335 v -18.8595 q 0,-1.3335 1.3335,-1.3335 h 7.65175 q 4.14337,0 6.096,1.9685 1.9685,1.952625 1.9685,6.096 v 5.3975 q 0,4.143375 -1.95263,6.111875 -1.93675,1.952625 -6.11187,1.952625 z m 1.3335,-2.667 h 6.31825 q 2.032,0 3.20675,-0.492125 1.19062,-0.508 1.68275,-1.68275 0.508,-1.190625 0.508,-3.222625 v -5.3975 q 0,-2.016125 -0.508,-3.190875 -0.49213,-1.190625 -1.68275,-1.698625 -1.17475,-0.508 -3.20675,-0.508 h -6.31825 z"
           id="path1024" />
        <path
           style="color:#000000;-inkscape-font-specification:jura;-inkscape-stroke:none"
           d="m 459.11328,39.185547 c -0.5945,0 -1.20234,0.161321 -1.63672,0.595703 -0.43438,0.434382 -0.59765,1.042219 -0.59765,1.636719 v 18.859375 c 0,0.594499 0.16327,1.202337 0.59765,1.636718 0.43438,0.434382 1.04222,0.597657 1.63672,0.597657 h 7.65039 c 2.92372,0 5.23308,-0.687428 6.75195,-2.21875 1.5241,-1.536478 2.2129,-3.842467 2.2129,-6.746094 v -5.398438 c 0,-2.902867 -0.69624,-5.204554 -2.23243,-6.730468 -1.52591,-1.536185 -3.82955,-2.232422 -6.73242,-2.232422 z m 0,1.798828 h 7.65039 c 2.61972,0 4.37943,0.61676 5.45703,1.703125 l 0.004,0.002 0.002,0.002 c 1.08637,1.077603 1.70313,2.837313 1.70313,5.457031 v 5.398438 c 0,2.620868 -0.612,4.39033 -1.69141,5.478516 h -0.002 c -1.06346,1.072175 -2.82955,1.685546 -5.47266,1.685546 h -7.65039 c -0.2945,0 -0.35512,-0.06019 -0.36523,-0.07031 -0.0101,-0.01012 -0.0684,-0.06878 -0.0684,-0.363281 V 41.417969 c 0,-0.2945 0.0582,-0.353164 0.0684,-0.363282 0.0101,-0.01012 0.0707,-0.07031 0.36523,-0.07031 z m 0.43359,0.867187 V 59.84375 h 0.89844 6.31836 c 1.42732,0 2.60095,-0.162963 3.55469,-0.5625 h 0.004 l 0.002,-0.002 c 0.98204,-0.419008 1.74777,-1.18229 2.1582,-2.160156 0.41024,-0.963173 0.58008,-2.144122 0.58008,-3.572266 v -5.398438 c 0,-1.417263 -0.16849,-2.586571 -0.58008,-3.541015 -0.40897,-0.983487 -1.17298,-1.753903 -2.1543,-2.173828 -5.1e-4,-2.21e-4 -0.001,2.2e-4 -0.002,0 -0.95641,-0.413218 -2.1336,-0.582031 -3.5625,-0.582032 z m 1.79883,1.800782 h 5.41797 c 1.27967,0 2.23996,0.169962 2.84961,0.433593 h 0.002 l 0.002,0.002 c 0.60147,0.256631 0.9576,0.616127 1.20508,1.214843 l 0.002,0.0059 0.004,0.0059 c 0.26422,0.611004 0.4336,1.565493 0.4336,2.833984 v 5.398438 c 0,1.279665 -0.16941,2.245375 -0.43555,2.869141 l -0.002,0.002 v 0.0039 c -0.24501,0.584858 -0.60105,0.941499 -1.20117,1.199219 -4.1e-4,1.71e-4 -0.002,-1.72e-4 -0.002,0 -0.61265,0.256335 -1.57627,0.423828 -2.85742,0.423828 h -5.41797 z"
           id="path1026" />
      </g>
    </g>
    <path
       id="rect161992"
       style="fill:none;stroke:#ffffff;stroke-width:5.4467;stroke-linejoin:round;filter:url(#filter323266)"
       d="M 9.9208527,9.4443512 H 490.07915 V 91.669746 H 9.9208527 Z" />
    <g
       aria-label="BATTLE ROYALE"
       id="text302784"
       style="font-size:52.9167px;line-height:1.25;font-family:Jura;-inkscape-font-specification:Jura;letter-spacing:0px;word-spacing:0px;stroke-width:0.264583;filter:url(#filter323438)">
      <path
         d="m 53.970616,143.36578 q -2.222502,0 -2.222502,-2.2225 v -31.43252 q 0,-2.2225 2.222502,-2.2225 h 13.811258 q 4.206877,0 6.455837,2.2225 2.275418,2.2225 2.275418,6.35001 v 1.42875 q 0,3.57188 -2.248959,5.52979 4.206877,2.3548 4.206877,8.59897 v 1.79916 q 0,4.86834 -2.592918,7.40834 -2.56646,2.54 -7.408338,2.54 z m 2.222501,-4.445 h 12.276674 q 2.989793,0 4.259794,-1.27 1.296459,-1.29646 1.296459,-4.23334 v -1.79916 q 0,-2.93688 -1.243542,-4.18042 -1.243542,-1.27 -4.312711,-1.27 H 56.193117 Z m 0,-17.19793 h 12.541258 q 1.931459,0 2.619376,-1.19062 0.714376,-1.19063 0.714376,-3.04271 v -1.42875 q 0,-2.30188 -0.952501,-3.20146 -0.952501,-0.92605 -3.333752,-0.92605 H 56.193117 Z"
         style="fill:#00ff00"
         id="path918" />
      <path
         d="m 85.667634,143.15412 q -2.116668,-0.82021 -1.270001,-2.91042 l 12.594174,-31.00919 q 0.793751,-1.74625 2.487085,-1.74625 h 0.105834 q 1.719794,0.0794 2.328334,1.74625 l 12.80584,31.00919 q 0.84667,2.09021 -1.21708,2.91042 -2.09021,0.82021 -2.91042,-1.21709 l -2.8575,-6.93208 H 91.250346 l -2.72521,6.93208 q -0.820209,2.06375 -2.857502,1.21709 z m 7.328963,-12.59418 h 12.911673 l -6.588128,-16.03376 z"
         style="fill:#00ff00"
         id="path920" />
      <path
         d="m 129.11206,143.36578 q -1.11125,0 -1.66688,-0.55562 -0.55562,-0.55563 -0.55562,-1.66688 v -29.1571 h -10.26584 q -1.11125,0 -1.66688,-0.55562 -0.55562,-0.55563 -0.55562,-1.66688 0,-1.11125 0.55562,-1.66688 0.55563,-0.55562 1.66688,-0.55562 h 24.97668 q 1.11125,0 1.66688,0.55562 0.55562,0.55563 0.55562,1.66688 0,1.11125 -0.55562,1.66688 -0.55563,0.55562 -1.66688,0.55562 h -10.26584 v 29.1571 q 0,1.05834 -0.58208,1.64042 -0.55563,0.58208 -1.64042,0.58208 z"
         style="fill:#00ff00"
         id="path922" />
      <path
         d="m 161.60283,143.36578 q -1.11125,0 -1.66688,-0.55562 -0.55562,-0.55563 -0.55562,-1.66688 v -29.1571 h -10.26584 q -1.11125,0 -1.66688,-0.55562 -0.55562,-0.55563 -0.55562,-1.66688 0,-1.11125 0.55562,-1.66688 0.55563,-0.55562 1.66688,-0.55562 h 24.97668 q 1.11125,0 1.66688,0.55562 0.55562,0.55563 0.55562,1.66688 0,1.11125 -0.55562,1.66688 -0.55563,0.55562 -1.66688,0.55562 h -10.26584 v 29.1571 q 0,1.05834 -0.58208,1.64042 -0.55563,0.58208 -1.64042,0.58208 z"
         style="fill:#00ff00"
         id="path924" />
      <path
         d="m 185.57401,143.36578 q -2.2225,0 -2.2225,-2.2225 v -31.43252 q 0,-2.2225 2.2225,-2.2225 2.2225,0 2.2225,2.2225 v 29.21002 h 14.65793 q 2.2225,0 2.2225,2.2225 0,2.2225 -2.2225,2.2225 z"
         style="fill:#00ff00"
         id="path926" />
      <path
         d="m 214.20186,143.36578 q -2.2225,0 -2.2225,-2.2225 v -31.43252 q 0,-2.2225 2.2225,-2.2225 h 18.9971 q 2.2225,0 2.2225,2.2225 0,2.2225 -2.2225,2.2225 h -16.7746 v 11.11251 h 10.53043 q 2.2225,0 2.2225,2.2225 0,2.2225 -2.2225,2.2225 h -10.53043 v 11.43001 h 16.7746 q 2.2225,0 2.2225,2.2225 0,2.2225 -2.2225,2.2225 z"
         style="fill:#00ff00"
         id="path928" />
      <path
         d="m 283.57555,143.47162 q -0.87313,0.55562 -1.66688,0.34396 -0.79375,-0.21167 -1.34937,-1.0848 l -8.20209,-13.6525 h -7.40834 v 12.065 q 0,2.2225 -2.2225,2.2225 -2.2225,0 -2.2225,-2.2225 v -31.43252 q 0,-2.2225 2.2225,-2.2225 h 12.38251 q 4.84187,0 7.40833,2.59292 2.59292,2.56646 2.59292,7.40834 v 1.5875 q 0,4.20688 -1.95792,6.72042 -1.95791,2.48708 -5.66208,3.09563 l 6.93208,11.5623 q 1.00542,1.85208 -0.84666,3.01625 z m -18.62668,-18.83835 h 10.16001 q 3.01625,0 4.28625,-1.27 1.27,-1.27 1.27,-4.28625 v -1.5875 q 0,-2.9898 -1.27,-4.2598 -1.27,-1.29646 -4.28625,-1.29646 h -10.16001 z"
         style="fill:#00ff00"
         id="path930" />
      <path
         d="m 304.16004,143.36578 q -6.05897,0 -8.96938,-2.88396 -2.88396,-2.91041 -2.88396,-8.96938 v -12.22375 q 0,-6.11188 2.91041,-8.96938 2.91042,-2.88396 8.94293,-2.83105 h 6.35 q 6.08542,0 8.96938,2.88396 2.88396,2.88396 2.88396,8.96938 v 12.17084 q 0,6.05897 -2.88396,8.96938 -2.88396,2.88396 -8.96938,2.88396 z m 0,-4.445 h 6.35 q 2.83104,0 4.445,-0.66146 1.61396,-0.68791 2.27542,-2.30187 0.68792,-1.61396 0.68792,-4.44501 V 119.3416 q 0,-2.80458 -0.68792,-4.41854 -0.66146,-1.61396 -2.27542,-2.30188 -1.61396,-0.68792 -4.445,-0.68792 h -6.35 q -2.80459,-0.0265 -4.41855,0.63501 -1.61396,0.66145 -2.30187,2.27541 -0.68792,1.61396 -0.68792,4.44501 v 12.22375 q 0,2.83105 0.66146,4.44501 0.68791,1.61396 2.30187,2.30187 1.61396,0.66146 4.44501,0.66146 z"
         style="fill:#00ff00"
         id="path932" />
      <path
         d="m 341.5456,143.36578 q -2.2225,0 -2.2225,-2.2225 v -10.795 l -12.11793,-19.3146 q -1.11125,-1.905 0.68792,-3.12208 1.905,-1.16417 3.06917,0.68791 l 10.58334,16.98626 11.1125,-16.98626 q 0.55563,-0.87312 1.34938,-1.03187 0.79375,-0.18521 1.66688,0.44979 1.93146,1.19062 0.68791,3.01625 l -12.59417,19.3146 v 10.795 q 0,2.2225 -2.2225,2.2225 z"
         style="fill:#00ff00"
         id="path934" />
      <path
         d="m 359.24616,143.15412 q -2.11667,-0.82021 -1.27001,-2.91042 l 12.59418,-31.00919 q 0.79375,-1.74625 2.48708,-1.74625 h 0.10584 q 1.71979,0.0794 2.32833,1.74625 l 12.80584,31.00919 q 0.84667,2.09021 -1.21708,2.91042 -2.09021,0.82021 -2.91042,-1.21709 l -2.8575,-6.93208 h -16.48355 l -2.72521,6.93208 q -0.82021,2.06375 -2.8575,1.21709 z m 7.32896,-12.59418 h 12.91167 l -6.58813,-16.03376 z"
         style="fill:#00ff00"
         id="path936" />
      <path
         d="m 398.40442,143.36578 q -2.2225,0 -2.2225,-2.2225 v -31.43252 q 0,-2.2225 2.2225,-2.2225 2.2225,0 2.2225,2.2225 v 29.21002 h 14.65793 q 2.2225,0 2.2225,2.2225 0,2.2225 -2.2225,2.2225 z"
         style="fill:#00ff00"
         id="path938" />
      <path
         d="m 427.03229,143.36578 q -2.2225,0 -2.2225,-2.2225 v -31.43252 q 0,-2.2225 2.2225,-2.2225 h 18.9971 q 2.2225,0 2.2225,2.2225 0,2.2225 -2.2225,2.2225 h -16.7746 v 11.11251 h 10.53043 q 2.2225,0 2.2225,2.2225 0,2.2225 -2.2225,2.2225 h -10.53043 v 11.43001 h 16.7746 q 2.2225,0 2.2225,2.2225 0,2.2225 -2.2225,2.2225 z"
         style="fill:#00ff00"
         id="path940" />
    </g>
  </g>
</svg>
